<svg width="300" height="100" viewBox="0 0 300 100" fill="none" xmlns="http://www.w3.org/2000/svg">
<path fill-rule="evenodd" clip-rule="evenodd" d="M0 74.4674L12.1172 25.5326H21.1718L33.2889 74.4674H25.0999L22.7031 63.8815H10.5859L8.18908 74.4674H0ZM21.2384 57.1571H12.0506L15.5127 41.8442L16.0453 39.3143C16.2672 38.4265 16.4669 37.561 16.6445 36.7177C16.822 37.561 16.9996 38.4265 17.1771 39.3143C17.399 40.1576 17.5988 41.0009 17.7763 41.8442L21.2384 57.1571Z" fill="white" style="fill:white;fill-opacity:1;"/>
<path fill-rule="evenodd" clip-rule="evenodd" d="M45.8462 75C44.4258 75 43.0055 74.8225 41.5852 74.4674C40.2092 74.1123 38.9886 73.4687 37.9234 72.5366C36.8582 71.6045 36.0592 70.4727 35.5266 69.1411C35.0384 67.7652 34.7942 66.3671 34.7942 64.9467C34.7942 63.704 34.994 62.4612 35.3934 61.2184C35.7929 59.9756 36.4143 58.8882 37.2576 57.9561C38.1453 56.9796 39.144 56.2028 40.2536 55.6258C41.4076 55.0044 42.5838 54.5162 43.7823 54.1611C45.025 53.806 46.2678 53.5619 47.5106 53.4288C48.7978 53.2956 50.085 53.229 51.3721 53.229H56.5652V51.5646C56.5652 50.7213 56.3877 49.9223 56.0326 49.1678C55.6775 48.3688 55.1671 47.7474 54.5013 47.3036C53.8355 46.8154 53.081 46.4825 52.2376 46.3049C51.4387 46.1274 50.6176 46.0386 49.7743 46.0386C49.0197 46.0386 48.243 46.1052 47.444 46.2383C46.6895 46.3715 45.9793 46.6378 45.3135 47.0373C44.6921 47.4368 44.1595 47.9916 43.7157 48.7017C43.3162 49.3675 43.1165 50.0777 43.1165 50.8322H35.1937C35.1937 49.6782 35.3712 48.5464 35.7263 47.4368C36.1258 46.2827 36.6584 45.2397 37.3242 44.3076C38.0344 43.3755 38.8777 42.5766 39.8542 41.9108C40.8306 41.245 41.8515 40.7346 42.9167 40.3795C44.0264 39.98 45.1582 39.7137 46.3122 39.5806C47.4662 39.403 48.6202 39.3143 49.7743 39.3143C50.9727 39.3143 52.1711 39.403 53.3695 39.5806C54.6123 39.7137 55.7885 40.0022 56.8981 40.4461C58.0521 40.8455 59.1174 41.4004 60.0938 42.1105C61.0703 42.8207 61.8914 43.6862 62.5572 44.7071C63.2674 45.6835 63.7556 46.771 64.0219 47.9694C64.3326 49.1678 64.488 50.3662 64.488 51.5646V74.4674H56.5652V69.0746C56.077 70.051 55.4334 70.9388 54.6344 71.7377C53.8799 72.4922 53.0144 73.1358 52.0379 73.6684C51.1058 74.1567 50.1072 74.4896 49.0419 74.6671C47.9767 74.889 46.9114 75 45.8462 75ZM51.7716 68.0093C50.8395 68.1869 49.9074 68.2756 48.9753 68.2756C48.2652 68.2756 47.555 68.2313 46.8448 68.1425C46.1347 68.0537 45.4689 67.854 44.8475 67.5433C44.2261 67.1882 43.7157 66.7222 43.3162 66.1451C42.9167 65.5237 42.717 64.858 42.717 64.1478C42.717 63.5708 42.8724 63.0382 43.1831 62.5499C43.5381 62.0173 43.9598 61.5957 44.448 61.285C44.9807 60.9743 45.5355 60.7523 46.1125 60.6192C46.6895 60.4416 47.2665 60.3085 47.8435 60.2197C48.4205 60.1309 48.9975 60.0644 49.5745 60.02C50.1959 59.9756 50.7951 59.9534 51.3721 59.9534H56.5652V61.8842C56.5652 62.8162 56.3655 63.7261 55.966 64.6139C55.6109 65.5016 55.0561 66.2339 54.3016 66.8109C53.547 67.3879 52.7037 67.7874 51.7716 68.0093Z" fill="white" style="fill:white;fill-opacity:1;"/>
<path d="M67.931 74.4674V39.8469H75.8538V46.3715C76.2088 45.395 76.6749 44.4629 77.2519 43.5752C77.8289 42.6875 78.5169 41.9108 79.3158 41.245C80.1147 40.5792 81.0024 40.091 81.9789 39.7803C82.9998 39.4696 84.0206 39.3143 85.0415 39.3143C86.018 39.3143 86.9723 39.4474 87.9044 39.7137C88.8364 39.98 89.6576 40.4239 90.3677 41.0453C91.1223 41.6667 91.7437 42.399 92.2319 43.2423C92.7202 44.0857 93.0974 44.9734 93.3637 45.9055C93.6301 46.8376 93.8076 47.7918 93.8964 48.7683C93.9851 49.7004 94.0295 50.6547 94.0295 51.6312H86.1068C86.1068 50.9654 86.0624 50.3218 85.9736 49.7004C85.8848 49.0346 85.6851 48.4354 85.3744 47.9028C85.0637 47.3258 84.6198 46.8819 84.0428 46.5712C83.5102 46.2162 82.911 46.0386 82.2452 46.0386C81.4907 46.0386 80.7583 46.194 80.0482 46.5047C79.338 46.771 78.7388 47.1704 78.2506 47.7031C77.7623 48.2357 77.3407 48.8571 76.9856 49.5672C76.6749 50.233 76.4308 50.9432 76.2532 51.6977C76.0757 52.4079 75.9647 53.1403 75.9203 53.8948C75.876 54.6494 75.8538 55.3817 75.8538 56.0919V74.4674H67.931Z" fill="white" style="fill:white;fill-opacity:1;"/>
<path fill-rule="evenodd" clip-rule="evenodd" d="M111.447 75C110.115 75 108.784 74.889 107.452 74.6671C106.165 74.4452 104.922 74.0679 103.724 73.5353C102.525 72.9583 101.416 72.2259 100.395 71.3382C99.4185 70.4061 98.6196 69.3631 97.9982 68.2091C97.3768 67.0107 96.9329 65.7679 96.6666 64.4807C96.4447 63.1491 96.3337 61.8176 96.3337 60.486V53.8282C96.3337 52.4967 96.4447 51.1873 96.6666 49.9001C96.9329 48.5686 97.3768 47.3258 97.9982 46.1718C98.6196 44.9734 99.4185 43.9303 100.395 43.0426C101.416 42.1105 102.525 41.3782 103.724 40.8455C104.922 40.2685 106.165 39.8691 107.452 39.6471C108.784 39.4252 110.115 39.3143 111.447 39.3143C112.778 39.3143 114.088 39.4252 115.375 39.6471C116.707 39.8691 117.972 40.2685 119.17 40.8455C120.368 41.3782 121.456 42.1105 122.432 43.0426C123.453 43.9303 124.274 44.9734 124.896 46.1718C125.517 47.3258 125.939 48.5686 126.161 49.9001C126.427 51.1873 126.56 52.4967 126.56 53.8282V60.486C126.56 61.8176 126.427 63.1491 126.161 64.4807C125.939 65.7679 125.517 67.0107 124.896 68.2091C124.274 69.3631 123.453 70.4061 122.432 71.3382C121.456 72.2259 120.368 72.9583 119.17 73.5353C117.972 74.0679 116.707 74.4452 115.375 74.6671C114.088 74.889 112.778 75 111.447 75ZM114.443 67.8096C113.466 68.1203 112.468 68.2756 111.447 68.2756C110.426 68.2756 109.427 68.1203 108.451 67.8096C107.474 67.4545 106.653 66.8997 105.988 66.1451C105.366 65.3462 104.922 64.4585 104.656 63.482C104.39 62.5056 104.257 61.5069 104.257 60.486V53.8282C104.257 52.8074 104.39 51.8087 104.656 50.8322C104.922 49.8558 105.366 48.9902 105.988 48.2357C106.653 47.4368 107.474 46.8819 108.451 46.5712C109.427 46.2162 110.426 46.0386 111.447 46.0386C112.468 46.0386 113.466 46.2162 114.443 46.5712C115.419 46.8819 116.218 47.4368 116.84 48.2357C117.506 48.9902 117.972 49.8558 118.238 50.8322C118.504 51.8087 118.637 52.8074 118.637 53.8282V60.486C118.637 61.5069 118.504 62.5056 118.238 63.482C117.972 64.4585 117.506 65.3462 116.84 66.1451C116.218 66.8997 115.419 67.4545 114.443 67.8096Z" fill="white" style="fill:white;fill-opacity:1;"/>
<path d="M130.129 74.4674V39.8469H138.052V45.5726C138.452 44.6405 138.984 43.775 139.65 42.976C140.316 42.1327 141.092 41.4447 141.98 40.9121C142.868 40.3351 143.822 39.9356 144.843 39.7137C145.864 39.4474 146.885 39.3143 147.906 39.3143C149.06 39.3143 150.214 39.4696 151.368 39.7803C152.522 40.091 153.543 40.6014 154.43 41.3116C155.362 42.0217 156.139 42.8651 156.76 43.8415C157.426 44.818 157.937 45.8611 158.292 46.9707C158.691 48.0803 158.958 49.2122 159.091 50.3662C159.224 51.5202 159.29 52.6742 159.29 53.8282V74.4674H151.368V53.8282C151.368 52.8518 151.257 51.8975 151.035 50.9654C150.813 49.9889 150.413 49.1234 149.836 48.3688C149.259 47.5699 148.505 46.9929 147.573 46.6378C146.641 46.2383 145.686 46.0386 144.71 46.0386C143.733 46.0386 142.779 46.2383 141.847 46.6378C140.915 46.9929 140.16 47.5699 139.583 48.3688C139.006 49.1234 138.607 49.9889 138.385 50.9654C138.163 51.8975 138.052 52.8518 138.052 53.8282V74.4674H130.129Z" fill="white" style="fill:white;fill-opacity:1;"/>
<path d="M164.068 74.4674V67.743L180.179 49.5007L182.177 47.237C182.843 46.4825 183.42 45.6835 183.908 44.8402C184.44 43.9525 184.84 43.0426 185.106 42.1105C185.417 41.134 185.572 40.1354 185.572 39.1145C185.572 38.1824 185.439 37.2503 185.173 36.3182C184.951 35.3418 184.507 34.4984 183.841 33.7883C183.22 33.0781 182.443 32.5677 181.511 32.257C180.579 31.9019 179.647 31.7244 178.715 31.7244C177.827 31.7244 176.962 31.8353 176.118 32.0573C175.275 32.2792 174.52 32.6787 173.855 33.2557C173.189 33.8327 172.678 34.5428 172.323 35.3862C172.013 36.1851 171.857 37.0062 171.857 37.8495V37.9161H163.934V37.8495C163.934 36.6067 164.09 35.3862 164.401 34.1878C164.756 32.9893 165.266 31.8797 165.932 30.8589C166.598 29.838 167.397 28.9281 168.329 28.1292C169.305 27.3302 170.348 26.7088 171.458 26.265C172.612 25.7767 173.788 25.4439 174.986 25.2663C176.229 25.0888 177.472 25 178.715 25C180.002 25 181.289 25.111 182.576 25.3329C183.863 25.5104 185.084 25.8877 186.238 26.4647C187.436 26.9973 188.502 27.7075 189.434 28.5952C190.41 29.4829 191.209 30.5038 191.831 31.6578C192.452 32.7674 192.874 33.9658 193.096 35.253C193.362 36.5402 193.495 37.8273 193.495 39.1145C193.495 40.5348 193.295 41.933 192.896 43.3089C192.541 44.6849 192.008 45.9942 191.298 47.237C190.588 48.4798 189.789 49.6338 188.901 50.6991C188.013 51.7643 187.081 52.8296 186.105 53.8948L173.921 67.743H193.229V74.4674H164.068Z" fill="white" style="fill:white;fill-opacity:1;"/>
<path d="M209.98 74.4674V33.5885L198.795 42.6639V34.5872L209.98 25.5326H217.837V74.4674H209.98Z" fill="white" style="fill:white;fill-opacity:1;"/>
<path d="M225.045 74.4674V67.743L241.157 49.5007L243.155 47.237C243.82 46.4825 244.397 45.6835 244.886 44.8402C245.418 43.9525 245.818 43.0426 246.084 42.1105C246.395 41.134 246.55 40.1354 246.55 39.1145C246.55 38.1824 246.417 37.2503 246.151 36.3182C245.929 35.3418 245.485 34.4984 244.819 33.7883C244.198 33.0781 243.421 32.5677 242.489 32.257C241.557 31.9019 240.625 31.7244 239.692 31.7244C238.805 31.7244 237.939 31.8353 237.096 32.0573C236.253 32.2792 235.498 32.6787 234.832 33.2557C234.167 33.8327 233.656 34.5428 233.301 35.3862C232.99 36.1851 232.835 37.0062 232.835 37.8495V37.9161H224.912V37.8495C224.912 36.6067 225.068 35.3862 225.378 34.1878C225.733 32.9893 226.244 31.8797 226.91 30.8589C227.575 29.838 228.374 28.9281 229.306 28.1292C230.283 27.3302 231.326 26.7088 232.435 26.265C233.59 25.7767 234.766 25.4439 235.964 25.2663C237.207 25.0888 238.45 25 239.692 25C240.98 25 242.267 25.111 243.554 25.3329C244.841 25.5104 246.062 25.8877 247.216 26.4647C248.414 26.9973 249.479 27.7075 250.412 28.5952C251.388 29.4829 252.187 30.5038 252.808 31.6578C253.43 32.7674 253.851 33.9658 254.073 35.253C254.34 36.5402 254.473 37.8273 254.473 39.1145C254.473 40.5348 254.273 41.933 253.874 43.3089C253.518 44.6849 252.986 45.9942 252.276 47.237C251.566 48.4798 250.767 49.6338 249.879 50.6991C248.991 51.7643 248.059 52.8296 247.083 53.8948L234.899 67.743H254.206V74.4674H225.045Z" fill="white" style="fill:white;fill-opacity:1;"/>
</svg>
