<svg width="300" height="100" viewBox="0 0 300 100" fill="none" xmlns="http://www.w3.org/2000/svg">
<path fill-rule="evenodd" clip-rule="evenodd" d="M23 74.4674L35.1172 25.5326H44.1718L56.2889 74.4674H48.0999L45.7031 63.8815H33.5859L31.1891 74.4674H23ZM44.2384 57.1571H35.0506L38.5127 41.8442L39.0453 39.3143C39.2672 38.4265 39.4669 37.561 39.6445 36.7177C39.822 37.561 39.9996 38.4265 40.1771 39.3143C40.399 40.1576 40.5988 41.0009 40.7763 41.8442L44.2384 57.1571Z" fill="white" style="fill:white;fill-opacity:1;"/>
<path fill-rule="evenodd" clip-rule="evenodd" d="M68.8462 75C67.4258 75 66.0055 74.8225 64.5852 74.4674C63.2092 74.1123 61.9886 73.4687 60.9234 72.5366C59.8582 71.6045 59.0592 70.4727 58.5266 69.1411C58.0384 67.7652 57.7942 66.3671 57.7942 64.9467C57.7942 63.704 57.994 62.4612 58.3934 61.2184C58.7929 59.9756 59.4143 58.8882 60.2576 57.9561C61.1453 56.9796 62.144 56.2028 63.2536 55.6258C64.4076 55.0044 65.5838 54.5162 66.7823 54.1611C68.025 53.806 69.2678 53.5619 70.5106 53.4288C71.7978 53.2956 73.085 53.229 74.3721 53.229H79.5652V51.5646C79.5652 50.7213 79.3877 49.9223 79.0326 49.1678C78.6775 48.3688 78.1671 47.7474 77.5013 47.3036C76.8355 46.8154 76.081 46.4825 75.2376 46.3049C74.4387 46.1274 73.6176 46.0386 72.7743 46.0386C72.0197 46.0386 71.243 46.1052 70.444 46.2383C69.6895 46.3715 68.9793 46.6378 68.3135 47.0373C67.6921 47.4368 67.1595 47.9916 66.7157 48.7017C66.3162 49.3675 66.1165 50.0777 66.1165 50.8322H58.1937C58.1937 49.6782 58.3712 48.5464 58.7263 47.4368C59.1258 46.2827 59.6584 45.2397 60.3242 44.3076C61.0344 43.3755 61.8777 42.5766 62.8542 41.9108C63.8306 41.245 64.8515 40.7346 65.9167 40.3795C67.0264 39.98 68.1582 39.7137 69.3122 39.5806C70.4662 39.403 71.6202 39.3143 72.7743 39.3143C73.9727 39.3143 75.1711 39.403 76.3695 39.5806C77.6123 39.7137 78.7885 40.0022 79.8981 40.4461C81.0521 40.8455 82.1174 41.4004 83.0938 42.1105C84.0703 42.8207 84.8914 43.6862 85.5572 44.7071C86.2674 45.6835 86.7556 46.771 87.0219 47.9694C87.3326 49.1678 87.488 50.3662 87.488 51.5646V74.4674H79.5652V69.0746C79.077 70.051 78.4334 70.9388 77.6344 71.7377C76.8799 72.4922 76.0144 73.1358 75.0379 73.6684C74.1058 74.1567 73.1072 74.4896 72.0419 74.6671C70.9767 74.889 69.9114 75 68.8462 75ZM74.7716 68.0093C73.8395 68.1869 72.9074 68.2756 71.9753 68.2756C71.2652 68.2756 70.555 68.2313 69.8448 68.1425C69.1347 68.0537 68.4689 67.854 67.8475 67.5433C67.2261 67.1882 66.7157 66.7222 66.3162 66.1451C65.9167 65.5237 65.717 64.858 65.717 64.1478C65.717 63.5708 65.8724 63.0382 66.1831 62.5499C66.5381 62.0173 66.9598 61.5957 67.448 61.285C67.9807 60.9743 68.5355 60.7523 69.1125 60.6192C69.6895 60.4416 70.2665 60.3085 70.8435 60.2197C71.4205 60.1309 71.9975 60.0644 72.5745 60.02C73.1959 59.9756 73.7951 59.9534 74.3721 59.9534H79.5652V61.8842C79.5652 62.8162 79.3655 63.7261 78.966 64.6139C78.6109 65.5016 78.0561 66.2339 77.3016 66.8109C76.547 67.3879 75.7037 67.7874 74.7716 68.0093Z" fill="white" style="fill:white;fill-opacity:1;"/>
<path d="M90.931 74.4674V39.8469H98.8538V46.3715C99.2088 45.395 99.6749 44.4629 100.252 43.5752C100.829 42.6875 101.517 41.9108 102.316 41.245C103.115 40.5792 104.002 40.091 104.979 39.7803C106 39.4696 107.021 39.3143 108.042 39.3143C109.018 39.3143 109.972 39.4474 110.904 39.7137C111.836 39.98 112.658 40.4239 113.368 41.0453C114.122 41.6667 114.744 42.399 115.232 43.2423C115.72 44.0857 116.097 44.9734 116.364 45.9055C116.63 46.8376 116.808 47.7918 116.896 48.7683C116.985 49.7004 117.03 50.6547 117.03 51.6312H109.107C109.107 50.9654 109.062 50.3218 108.974 49.7004C108.885 49.0346 108.685 48.4354 108.374 47.9028C108.064 47.3258 107.62 46.8819 107.043 46.5712C106.51 46.2162 105.911 46.0386 105.245 46.0386C104.491 46.0386 103.758 46.194 103.048 46.5047C102.338 46.771 101.739 47.1704 101.251 47.7031C100.762 48.2357 100.341 48.8571 99.9856 49.5672C99.6749 50.233 99.4308 50.9432 99.2532 51.6977C99.0757 52.4079 98.9647 53.1403 98.9203 53.8948C98.876 54.6494 98.8538 55.3817 98.8538 56.0919V74.4674H90.931Z" fill="white" style="fill:white;fill-opacity:1;"/>
<path fill-rule="evenodd" clip-rule="evenodd" d="M134.447 75C133.115 75 131.784 74.889 130.452 74.6671C129.165 74.4452 127.922 74.0679 126.724 73.5353C125.525 72.9583 124.416 72.2259 123.395 71.3382C122.419 70.4061 121.62 69.3631 120.998 68.2091C120.377 67.0107 119.933 65.7679 119.667 64.4807C119.445 63.1491 119.334 61.8176 119.334 60.486V53.8282C119.334 52.4967 119.445 51.1873 119.667 49.9001C119.933 48.5686 120.377 47.3258 120.998 46.1718C121.62 44.9734 122.419 43.9303 123.395 43.0426C124.416 42.1105 125.525 41.3782 126.724 40.8455C127.922 40.2685 129.165 39.8691 130.452 39.6471C131.784 39.4252 133.115 39.3143 134.447 39.3143C135.778 39.3143 137.088 39.4252 138.375 39.6471C139.707 39.8691 140.972 40.2685 142.17 40.8455C143.368 41.3782 144.456 42.1105 145.432 43.0426C146.453 43.9303 147.274 44.9734 147.896 46.1718C148.517 47.3258 148.939 48.5686 149.161 49.9001C149.427 51.1873 149.56 52.4967 149.56 53.8282V60.486C149.56 61.8176 149.427 63.1491 149.161 64.4807C148.939 65.7679 148.517 67.0107 147.896 68.2091C147.274 69.3631 146.453 70.4061 145.432 71.3382C144.456 72.2259 143.368 72.9583 142.17 73.5353C140.972 74.0679 139.707 74.4452 138.375 74.6671C137.088 74.889 135.778 75 134.447 75ZM137.443 67.8096C136.466 68.1203 135.468 68.2756 134.447 68.2756C133.426 68.2756 132.427 68.1203 131.451 67.8096C130.474 67.4545 129.653 66.8997 128.988 66.1451C128.366 65.3462 127.922 64.4585 127.656 63.482C127.39 62.5056 127.257 61.5069 127.257 60.486V53.8282C127.257 52.8074 127.39 51.8087 127.656 50.8322C127.922 49.8558 128.366 48.9902 128.988 48.2357C129.653 47.4368 130.474 46.8819 131.451 46.5712C132.427 46.2162 133.426 46.0386 134.447 46.0386C135.468 46.0386 136.466 46.2162 137.443 46.5712C138.419 46.8819 139.218 47.4368 139.84 48.2357C140.506 48.9902 140.972 49.8558 141.238 50.8322C141.504 51.8087 141.637 52.8074 141.637 53.8282V60.486C141.637 61.5069 141.504 62.5056 141.238 63.482C140.972 64.4585 140.506 65.3462 139.84 66.1451C139.218 66.8997 138.419 67.4545 137.443 67.8096Z" fill="white" style="fill:white;fill-opacity:1;"/>
<path d="M153.129 74.4674V39.8469H161.052V45.5726C161.452 44.6405 161.984 43.775 162.65 42.976C163.316 42.1327 164.092 41.4447 164.98 40.9121C165.868 40.3351 166.822 39.9356 167.843 39.7137C168.864 39.4474 169.885 39.3143 170.906 39.3143C172.06 39.3143 173.214 39.4696 174.368 39.7803C175.522 40.091 176.543 40.6014 177.43 41.3116C178.362 42.0217 179.139 42.8651 179.76 43.8415C180.426 44.818 180.937 45.8611 181.292 46.9707C181.691 48.0803 181.958 49.2122 182.091 50.3662C182.224 51.5202 182.29 52.6742 182.29 53.8282V74.4674H174.368V53.8282C174.368 52.8518 174.257 51.8975 174.035 50.9654C173.813 49.9889 173.413 49.1234 172.836 48.3688C172.259 47.5699 171.505 46.9929 170.573 46.6378C169.641 46.2383 168.686 46.0386 167.71 46.0386C166.733 46.0386 165.779 46.2383 164.847 46.6378C163.915 46.9929 163.16 47.5699 162.583 48.3688C162.006 49.1234 161.607 49.9889 161.385 50.9654C161.163 51.8975 161.052 52.8518 161.052 53.8282V74.4674H153.129Z" fill="white" style="fill:white;fill-opacity:1;"/>
<path d="M187.068 74.4674V67.743L203.179 49.5007L205.177 47.237C205.843 46.4825 206.42 45.6835 206.908 44.8402C207.44 43.9525 207.84 43.0426 208.106 42.1105C208.417 41.134 208.572 40.1354 208.572 39.1145C208.572 38.1824 208.439 37.2503 208.173 36.3182C207.951 35.3418 207.507 34.4984 206.841 33.7883C206.22 33.0781 205.443 32.5677 204.511 32.257C203.579 31.9019 202.647 31.7244 201.715 31.7244C200.827 31.7244 199.962 31.8353 199.118 32.0573C198.275 32.2792 197.52 32.6787 196.855 33.2557C196.189 33.8327 195.678 34.5428 195.323 35.3862C195.013 36.1851 194.857 37.0062 194.857 37.8495V37.9161H186.934V37.8495C186.934 36.6067 187.09 35.3862 187.401 34.1878C187.756 32.9893 188.266 31.8797 188.932 30.8589C189.598 29.838 190.397 28.9281 191.329 28.1292C192.305 27.3302 193.348 26.7088 194.458 26.265C195.612 25.7767 196.788 25.4439 197.986 25.2663C199.229 25.0888 200.472 25 201.715 25C203.002 25 204.289 25.111 205.576 25.3329C206.863 25.5104 208.084 25.8877 209.238 26.4647C210.436 26.9973 211.502 27.7075 212.434 28.5952C213.41 29.4829 214.209 30.5038 214.831 31.6578C215.452 32.7674 215.874 33.9658 216.096 35.253C216.362 36.5402 216.495 37.8273 216.495 39.1145C216.495 40.5348 216.295 41.933 215.896 43.3089C215.541 44.6849 215.008 45.9942 214.298 47.237C213.588 48.4798 212.789 49.6338 211.901 50.6991C211.013 51.7643 210.081 52.8296 209.105 53.8948L196.921 67.743H216.229V74.4674H187.068Z" fill="white" style="fill:white;fill-opacity:1;"/>
<path d="M232.98 74.4674V33.5885L221.795 42.6639V34.5872L232.98 25.5326H240.837V74.4674H232.98Z" fill="white" style="fill:white;fill-opacity:1;"/>
<path d="M248.045 74.4674V67.743L264.157 49.5007L266.155 47.237C266.82 46.4825 267.397 45.6835 267.886 44.8402C268.418 43.9525 268.818 43.0426 269.084 42.1105C269.395 41.134 269.55 40.1354 269.55 39.1145C269.55 38.1824 269.417 37.2503 269.151 36.3182C268.929 35.3418 268.485 34.4984 267.819 33.7883C267.198 33.0781 266.421 32.5677 265.489 32.257C264.557 31.9019 263.625 31.7244 262.692 31.7244C261.805 31.7244 260.939 31.8353 260.096 32.0573C259.253 32.2792 258.498 32.6787 257.832 33.2557C257.167 33.8327 256.656 34.5428 256.301 35.3862C255.99 36.1851 255.835 37.0062 255.835 37.8495V37.9161H247.912V37.8495C247.912 36.6067 248.068 35.3862 248.378 34.1878C248.733 32.9893 249.244 31.8797 249.91 30.8589C250.575 29.838 251.374 28.9281 252.306 28.1292C253.283 27.3302 254.326 26.7088 255.435 26.265C256.59 25.7767 257.766 25.4439 258.964 25.2663C260.207 25.0888 261.45 25 262.692 25C263.98 25 265.267 25.111 266.554 25.3329C267.841 25.5104 269.062 25.8877 270.216 26.4647C271.414 26.9973 272.479 27.7075 273.412 28.5952C274.388 29.4829 275.187 30.5038 275.808 31.6578C276.43 32.7674 276.851 33.9658 277.073 35.253C277.34 36.5402 277.473 37.8273 277.473 39.1145C277.473 40.5348 277.273 41.933 276.874 43.3089C276.518 44.6849 275.986 45.9942 275.276 47.237C274.566 48.4798 273.767 49.6338 272.879 50.6991C271.991 51.7643 271.059 52.8296 270.083 53.8948L257.899 67.743H277.206V74.4674H248.045Z" fill="white" style="fill:white;fill-opacity:1;"/>
</svg>
